<svg xmlns="http://www.w3.org/2000/svg" xmlns:xlink="http://www.w3.org/1999/xlink" width="2662pt" height="1570pt" viewBox="0.00 0.00 2662.00 1570.00">
<g id="graph0" class="graph" transform="scale(1 1) rotate(0) translate(72 1498)">
<title>YOLO_Complete_Architecture_Pastel</title>
<polygon fill="#fafafa" stroke="none" points="-72,72 -72,-1498 2589.77,-1498 2589.77,72 -72,72"/>
<text xml:space="preserve" text-anchor="start" x="1139.87" y="-30.8" font-family="Helvetica, Arial, sans-serif" font-weight="bold" font-size="18.00" fill="#7a8b8b">YOLO ANNOTATION TOOL</text>
<text xml:space="preserve" text-anchor="start" x="1171.28" y="-20" font-family="Helvetica, Arial, sans-serif" font-size="10.00" fill="#9ca3af">Architecture Diagram - Pastel Color Theme</text>
<g id="clust1" class="cluster">
<title>cluster_legend</title>
<path fill="#cbd5e1" stroke="#cbd5e1" stroke-width="1.5" d="M385,-1189.8C385,-1189.8 551,-1189.8 551,-1189.8 557,-1189.8 563,-1195.8 563,-1201.8 563,-1201.8 563,-1393.4 563,-1393.4 563,-1399.4 557,-1405.4 551,-1405.4 551,-1405.4 385,-1405.4 385,-1405.4 379,-1405.4 373,-1399.4 373,-1393.4 373,-1393.4 373,-1201.8 373,-1201.8 373,-1195.8 379,-1189.8 385,-1189.8"/>
<text xml:space="preserve" text-anchor="start" x="438.44" y="-1389.8" font-family="Helvetica, Arial, sans-serif" font-weight="bold" font-size="14.00" fill="#7a8b8b">LEGEND</text>
</g>
<g id="clust2" class="cluster">
<title>cluster_infra</title>
<path fill="#f8bbd0" stroke="#f8bbd0" stroke-width="1.5" d="M830,-1177.2C830,-1177.2 1692,-1177.2 1692,-1177.2 1698,-1177.2 1704,-1183.2 1704,-1189.2 1704,-1189.2 1704,-1406 1704,-1406 1704,-1412 1698,-1418 1692,-1418 1692,-1418 830,-1418 830,-1418 824,-1418 818,-1412 818,-1406 818,-1406 818,-1189.2 818,-1189.2 818,-1183.2 824,-1177.2 830,-1177.2"/>
<text xml:space="preserve" text-anchor="start" x="1169.41" y="-1402.4" font-family="Helvetica, Arial, sans-serif" font-weight="bold" font-size="14.00" fill="#e91e63">INFRASTRUCTURE LAYER</text>
</g>
<g id="clust3" class="cluster">
<title>cluster_controller</title>
<path fill="#ffecb3" stroke="#ffecb3" stroke-width="1.5" d="M1216,-778.4C1216,-778.4 1474,-778.4 1474,-778.4 1480,-778.4 1486,-784.4 1486,-790.4 1486,-790.4 1486,-1035.4 1486,-1035.4 1486,-1041.4 1480,-1047.4 1474,-1047.4 1474,-1047.4 1216,-1047.4 1216,-1047.4 1210,-1047.4 1204,-1041.4 1204,-1035.4 1204,-1035.4 1204,-790.4 1204,-790.4 1204,-784.4 1210,-778.4 1216,-778.4"/>
<text xml:space="preserve" text-anchor="start" x="1274.02" y="-1031.8" font-family="Helvetica, Arial, sans-serif" font-weight="bold" font-size="14.00" fill="#ff8f00">MAIN CONTROLLER</text>
</g>
<g id="clust4" class="cluster">
<title>cluster_model</title>
<path fill="#bbdefb" stroke="#bbdefb" stroke-width="1.5" d="M20,-410.4C20,-410.4 574,-410.4 574,-410.4 580,-410.4 586,-416.4 586,-422.4 586,-422.4 586,-631.8 586,-631.8 586,-637.8 580,-643.8 574,-643.8 574,-643.8 20,-643.8 20,-643.8 14,-643.8 8,-637.8 8,-631.8 8,-631.8 8,-422.4 8,-422.4 8,-416.4 14,-410.4 20,-410.4"/>
<text xml:space="preserve" text-anchor="start" x="211.63" y="-628.2" font-family="Helvetica, Arial, sans-serif" font-weight="bold" font-size="14.00" fill="#1976d2">MODEL &amp; LOGIC LAYER</text>
</g>
<g id="clust5" class="cluster">
<title>cluster_ui_core</title>
<path fill="#dcedc8" stroke="#dcedc8" stroke-width="1.5" d="M630,-415.2C630,-415.2 1171,-415.2 1171,-415.2 1177,-415.2 1183,-421.2 1183,-427.2 1183,-427.2 1183,-627 1183,-627 1183,-633 1177,-639 1171,-639 1171,-639 630,-639 630,-639 624,-639 618,-633 618,-627 618,-627 618,-427.2 618,-427.2 618,-421.2 624,-415.2 630,-415.2"/>
<text xml:space="preserve" text-anchor="start" x="844.49" y="-623.4" font-family="Helvetica, Arial, sans-serif" font-weight="bold" font-size="14.00" fill="#689f38">UI CORE LAYER</text>
</g>
<g id="clust6" class="cluster">
<title>cluster_windows</title>
<path fill="#e1bee7" stroke="#e1bee7" stroke-width="1.5" d="M771,-72C771,-72 2379,-72 2379,-72 2385,-72 2391,-78 2391,-84 2391,-84 2391,-278.4 2391,-278.4 2391,-284.4 2385,-290.4 2379,-290.4 2379,-290.4 771,-290.4 771,-290.4 765,-290.4 759,-284.4 759,-278.4 759,-278.4 759,-84 759,-84 759,-78 765,-72 771,-72"/>
<text xml:space="preserve" text-anchor="start" x="1517.63" y="-274.8" font-family="Helvetica, Arial, sans-serif" font-weight="bold" font-size="14.00" fill="#9575cd">TOOL MODULES</text>
</g>
<!-- Legend_Key -->
<g id="node1" class="node">
<title>Legend_Key</title>
<path fill="#ffffff" stroke="none" stroke-width="1.2" d="M535.51,-1340.8C535.51,-1340.8 400.49,-1340.8 400.49,-1340.8 394.49,-1340.8 388.49,-1334.8 388.49,-1328.8 388.49,-1328.8 388.49,-1216.8 388.49,-1216.8 388.49,-1210.8 394.49,-1204.8 400.49,-1204.8 400.49,-1204.8 535.51,-1204.8 535.51,-1204.8 541.51,-1204.8 547.51,-1210.8 547.51,-1216.8 547.51,-1216.8 547.51,-1328.8 547.51,-1328.8 547.51,-1334.8 541.51,-1340.8 535.51,-1340.8"/>
<polygon fill="#ffe4ec" stroke="none" points="410.89,-1301.6 410.89,-1318.4 435.89,-1318.4 435.89,-1301.6 410.89,-1301.6"/>
<polygon fill="none" stroke="#f8bbd0" points="410.89,-1301.6 410.89,-1318.4 435.89,-1318.4 435.89,-1301.6 410.89,-1301.6"/>
<text xml:space="preserve" text-anchor="start" x="446.89" y="-1307.3" font-family="Helvetica, Arial, sans-serif" font-size="9.00" fill="#7a8b8b">Infrastructure Layer</text>
<polygon fill="#e3f2fd" stroke="none" points="410.89,-1276.8 410.89,-1293.6 435.89,-1293.6 435.89,-1276.8 410.89,-1276.8"/>
<polygon fill="none" stroke="#bbdefb" points="410.89,-1276.8 410.89,-1293.6 435.89,-1293.6 435.89,-1276.8 410.89,-1276.8"/>
<text xml:space="preserve" text-anchor="start" x="446.89" y="-1282.5" font-family="Helvetica, Arial, sans-serif" font-size="9.00" fill="#7a8b8b">Model &amp; Data Layer</text>
<polygon fill="#fff8e1" stroke="none" points="410.89,-1252 410.89,-1268.8 435.89,-1268.8 435.89,-1252 410.89,-1252"/>
<polygon fill="none" stroke="#ffecb3" points="410.89,-1252 410.89,-1268.8 435.89,-1268.8 435.89,-1252 410.89,-1252"/>
<text xml:space="preserve" text-anchor="start" x="446.89" y="-1257.7" font-family="Helvetica, Arial, sans-serif" font-size="9.00" fill="#7a8b8b">Controller Layer</text>
<polygon fill="#f1f8e9" stroke="none" points="410.89,-1227.2 410.89,-1244 435.89,-1244 435.89,-1227.2 410.89,-1227.2"/>
<polygon fill="none" stroke="#dcedc8" points="410.89,-1227.2 410.89,-1244 435.89,-1244 435.89,-1227.2 410.89,-1227.2"/>
<text xml:space="preserve" text-anchor="start" x="446.89" y="-1232.9" font-family="Helvetica, Arial, sans-serif" font-size="9.00" fill="#7a8b8b">View / UI Layer</text>
</g>
<!-- node_config -->
<g id="node2" class="node">
<title>node_config</title>
<path fill="#ffffff" stroke="none" stroke-width="1.2" d="M1018.02,-1348.4C1018.02,-1348.4 849.98,-1348.4 849.98,-1348.4 843.98,-1348.4 837.98,-1342.4 837.98,-1336.4 837.98,-1336.4 837.98,-1209.2 837.98,-1209.2 837.98,-1203.2 843.98,-1197.2 849.98,-1197.2 849.98,-1197.2 1018.02,-1197.2 1018.02,-1197.2 1024.02,-1197.2 1030.02,-1203.2 1030.02,-1209.2 1030.02,-1209.2 1030.02,-1336.4 1030.02,-1336.4 1030.02,-1342.4 1024.02,-1348.4 1018.02,-1348.4"/>
<polygon fill="#ffe4ec" stroke="none" points="852.38,-1211.6 852.38,-1334 1015.62,-1334 1015.62,-1211.6 852.38,-1211.6"/>
<polygon fill="#fce4ec" stroke="none" points="852.38,-1295.2 852.38,-1334 1015.62,-1334 1015.62,-1295.2 852.38,-1295.2"/>
<polygon fill="none" stroke="#f8bbd0" points="852.38,-1295.2 852.38,-1334 1015.62,-1334 1015.62,-1295.2 852.38,-1295.2"/>
<text xml:space="preserve" text-anchor="start" x="906.58" y="-1311.4" font-family="Helvetica, Arial, sans-serif" font-weight="bold" font-size="14.00" fill="#c2185b">config.py</text>
<polygon fill="none" stroke="#f8bbd0" points="852.38,-1262.4 852.38,-1295.2 1015.62,-1295.2 1015.62,-1262.4 852.38,-1262.4"/>
<text xml:space="preserve" text-anchor="start" x="863.38" y="-1276.1" font-family="Helvetica, Arial, sans-serif" font-size="9.00" fill="#e91e63">CONFIGURATION MANAGEMENT</text>
<polygon fill="none" stroke="#f8bbd0" points="852.38,-1211.6 852.38,-1262.4 1015.62,-1262.4 1015.62,-1211.6 852.38,-1211.6"/>
<text xml:space="preserve" text-anchor="start" x="877.15" y="-1244.2" font-family="Helvetica, Arial, sans-serif" font-size="8.00" fill="#7b1fa2">                • Application Settings</text>
<text xml:space="preserve" text-anchor="start" x="883.82" y="-1234.6" font-family="Helvetica, Arial, sans-serif" font-size="8.00" fill="#7b1fa2">                • Path Definitions</text>
<text xml:space="preserve" text-anchor="start" x="863.38" y="-1225" font-family="Helvetica, Arial, sans-serif" font-size="8.00" fill="#7b1fa2">                • System Parameters                </text>
</g>
<!-- node_locale -->
<g id="node3" class="node">
<title>node_locale</title>
<path fill="#ffffff" stroke="none" stroke-width="1.2" d="M1358.72,-1348.4C1358.72,-1348.4 1185.28,-1348.4 1185.28,-1348.4 1179.28,-1348.4 1173.28,-1342.4 1173.28,-1336.4 1173.28,-1336.4 1173.28,-1209.2 1173.28,-1209.2 1173.28,-1203.2 1179.28,-1197.2 1185.28,-1197.2 1185.28,-1197.2 1358.72,-1197.2 1358.72,-1197.2 1364.72,-1197.2 1370.72,-1203.2 1370.72,-1209.2 1370.72,-1209.2 1370.72,-1336.4 1370.72,-1336.4 1370.72,-1342.4 1364.72,-1348.4 1358.72,-1348.4"/>
<polygon fill="#ffe4ec" stroke="none" points="1187.68,-1211.6 1187.68,-1334 1356.32,-1334 1356.32,-1211.6 1187.68,-1211.6"/>
<polygon fill="#fce4ec" stroke="none" points="1187.68,-1295.2 1187.68,-1334 1356.32,-1334 1356.32,-1295.2 1187.68,-1295.2"/>
<polygon fill="none" stroke="#f8bbd0" points="1187.68,-1295.2 1187.68,-1334 1356.32,-1334 1356.32,-1295.2 1187.68,-1295.2"/>
<text xml:space="preserve" text-anchor="start" x="1228.64" y="-1311.4" font-family="Helvetica, Arial, sans-serif" font-weight="bold" font-size="14.00" fill="#c2185b">localization.py</text>
<polygon fill="none" stroke="#f8bbd0" points="1187.68,-1262.4 1187.68,-1295.2 1356.32,-1295.2 1356.32,-1262.4 1187.68,-1262.4"/>
<text xml:space="preserve" text-anchor="start" x="1217.26" y="-1276.1" font-family="Helvetica, Arial, sans-serif" font-size="9.00" fill="#e91e63">INTERNATIONALIZATION</text>
<polygon fill="none" stroke="#f8bbd0" points="1187.68,-1211.6 1187.68,-1262.4 1356.32,-1262.4 1356.32,-1211.6 1187.68,-1211.6"/>
<text xml:space="preserve" text-anchor="start" x="1213.67" y="-1244.2" font-family="Helvetica, Arial, sans-serif" font-size="8.00" fill="#7b1fa2">                • Multi-language Support</text>
<text xml:space="preserve" text-anchor="start" x="1215.12" y="-1234.6" font-family="Helvetica, Arial, sans-serif" font-size="8.00" fill="#7b1fa2">                • XML Translation Files</text>
<text xml:space="preserve" text-anchor="start" x="1198.68" y="-1225" font-family="Helvetica, Arial, sans-serif" font-size="8.00" fill="#7b1fa2">                • Dynamic Text Loading                </text>
</g>
<!-- node_config&#45;&gt;node_locale -->
<!-- node_logger -->
<g id="node4" class="node">
<title>node_logger</title>
<path fill="#ffffff" stroke="none" stroke-width="1.2" d="M1672.28,-1348.4C1672.28,-1348.4 1525.72,-1348.4 1525.72,-1348.4 1519.72,-1348.4 1513.72,-1342.4 1513.72,-1336.4 1513.72,-1336.4 1513.72,-1209.2 1513.72,-1209.2 1513.72,-1203.2 1519.72,-1197.2 1525.72,-1197.2 1525.72,-1197.2 1672.28,-1197.2 1672.28,-1197.2 1678.28,-1197.2 1684.28,-1203.2 1684.28,-1209.2 1684.28,-1209.2 1684.28,-1336.4 1684.28,-1336.4 1684.28,-1342.4 1678.28,-1348.4 1672.28,-1348.4"/>
<polygon fill="#ffe4ec" stroke="none" points="1528.12,-1211.6 1528.12,-1334 1669.88,-1334 1669.88,-1211.6 1528.12,-1211.6"/>
<polygon fill="#fce4ec" stroke="none" points="1528.12,-1295.2 1528.12,-1334 1669.88,-1334 1669.88,-1295.2 1528.12,-1295.2"/>
<polygon fill="none" stroke="#f8bbd0" points="1528.12,-1295.2 1528.12,-1334 1669.88,-1334 1669.88,-1295.2 1528.12,-1295.2"/>
<text xml:space="preserve" text-anchor="start" x="1549.42" y="-1311.4" font-family="Helvetica, Arial, sans-serif" font-weight="bold" font-size="14.00" fill="#c2185b">logger_config.py</text>
<polygon fill="none" stroke="#f8bbd0" points="1528.12,-1262.4 1528.12,-1295.2 1669.88,-1295.2 1669.88,-1262.4 1528.12,-1262.4"/>
<text xml:space="preserve" text-anchor="start" x="1559.62" y="-1276.1" font-family="Helvetica, Arial, sans-serif" font-size="9.00" fill="#e91e63">LOGGING SYSTEM</text>
<polygon fill="none" stroke="#f8bbd0" points="1528.12,-1211.6 1528.12,-1262.4 1669.88,-1262.4 1669.88,-1211.6 1528.12,-1211.6"/>
<text xml:space="preserve" text-anchor="start" x="1553.78" y="-1244.2" font-family="Helvetica, Arial, sans-serif" font-size="8.00" fill="#7b1fa2">                • Log Formatting</text>
<text xml:space="preserve" text-anchor="start" x="1543.12" y="-1234.6" font-family="Helvetica, Arial, sans-serif" font-size="8.00" fill="#7b1fa2">                • File/Console Handlers</text>
<text xml:space="preserve" text-anchor="start" x="1539.12" y="-1225" font-family="Helvetica, Arial, sans-serif" font-size="8.00" fill="#7b1fa2">                • Error Tracking                </text>
</g>
<!-- node_locale&#45;&gt;node_logger -->
<!-- node_main -->
<g id="node5" class="node">
<title>node_main</title>
<path fill="#ffffff" stroke="none" stroke-width="1.2" d="M1448.9,-972.8C1448.9,-972.8 1241.1,-972.8 1241.1,-972.8 1235.1,-972.8 1229.1,-966.8 1229.1,-960.8 1229.1,-960.8 1229.1,-815.4 1229.1,-815.4 1229.1,-809.4 1235.1,-803.4 1241.1,-803.4 1241.1,-803.4 1448.9,-803.4 1448.9,-803.4 1454.9,-803.4 1460.9,-809.4 1460.9,-815.4 1460.9,-815.4 1460.9,-960.8 1460.9,-960.8 1460.9,-966.8 1454.9,-972.8 1448.9,-972.8"/>
<polygon fill="#fff3e0" stroke="none" points="1243.5,-817.8 1243.5,-958.4 1446.5,-958.4 1446.5,-817.8 1243.5,-817.8"/>
<polygon fill="#ffecb3" stroke="none" points="1243.5,-909.4 1243.5,-958.4 1446.5,-958.4 1446.5,-909.4 1243.5,-909.4"/>
<polygon fill="none" stroke="#ffe0b2" points="1243.5,-909.4 1243.5,-958.4 1446.5,-958.4 1446.5,-909.4 1243.5,-909.4"/>
<text xml:space="preserve" text-anchor="start" x="1279.82" y="-934.7" font-family="Helvetica, Arial, sans-serif" font-weight="bold" font-size="13.00" fill="#ff6f00">MAIN APPLICATION</text>
<text xml:space="preserve" text-anchor="start" x="1328.75" y="-924.4" font-family="Helvetica, Arial, sans-serif" font-size="10.00" fill="#ff8f00">main.py</text>
<polygon fill="none" stroke="#ffe0b2" points="1243.5,-872.6 1243.5,-909.4 1446.5,-909.4 1446.5,-872.6 1243.5,-872.6"/>
<text xml:space="preserve" text-anchor="start" x="1256.5" y="-888.3" font-family="Helvetica, Arial, sans-serif" font-size="9.00" fill="#ff9800">APPLICATION LIFECYCLE MANAGEMENT</text>
<polygon fill="none" stroke="#ffe0b2" points="1243.5,-817.8 1243.5,-872.6 1446.5,-872.6 1446.5,-817.8 1243.5,-817.8"/>
<text xml:space="preserve" text-anchor="start" x="1264.5" y="-852.4" font-family="Helvetica, Arial, sans-serif" font-size="8.00" fill="#ef6c00">                • Component Initialization</text>
<text xml:space="preserve" text-anchor="start" x="1265.62" y="-842.8" font-family="Helvetica, Arial, sans-serif" font-size="8.00" fill="#ef6c00">                • Inter-layer Coordination</text>
<text xml:space="preserve" text-anchor="start" x="1256.5" y="-833.2" font-family="Helvetica, Arial, sans-serif" font-size="8.00" fill="#ef6c00">                • Event Orchestration                </text>
</g>
<!-- node_logger&#45;&gt;node_main -->
<!-- node_main&#45;&gt;node_config -->
<g id="edge1" class="edge">
<title>node_main-&gt;node_config</title>
<path fill="none" stroke="#f8bbd0" stroke-width="1.2" d="M1229.4,-952C1125.94,-952 990.46,-952 990.46,-952 990.46,-952 990.46,-1189.12 990.46,-1189.12"/>
<polygon fill="#f8bbd0" stroke="#f8bbd0" stroke-width="1.2" points="990.46,-1196.12 987.31,-1189.12 990.36,-1194.09 990.36,-1189.12 990.46,-1189.12 990.56,-1189.12 990.56,-1194.09 993.61,-1189.12 990.46,-1196.12"/>
<text xml:space="preserve" text-anchor="middle" x="1031.24" y="-1102.1" font-family="Helvetica, Arial, sans-serif" font-size="9.00" fill="#e91e63"> loads config</text>
</g>
<!-- node_main&#45;&gt;node_locale -->
<g id="edge2" class="edge">
<title>node_main-&gt;node_locale</title>
<path fill="none" stroke="#f8bbd0" stroke-width="1.2" d="M1299.91,-972.52C1299.91,-972.52 1299.91,-1188.9 1299.91,-1188.9"/>
<polygon fill="#f8bbd0" stroke="#f8bbd0" stroke-width="1.2" points="1299.91,-1195.9 1296.76,-1188.9 1299.81,-1193.86 1299.81,-1188.9 1299.91,-1188.9 1300.01,-1188.9 1300.01,-1193.86 1303.06,-1188.9 1299.91,-1195.9"/>
<text xml:space="preserve" text-anchor="middle" x="1290.75" y="-1102.1" font-family="Helvetica, Arial, sans-serif" font-size="9.00" fill="#e91e63"> i18n setup</text>
</g>
<!-- node_main&#45;&gt;node_logger -->
<g id="edge3" class="edge">
<title>node_main-&gt;node_logger</title>
<path fill="none" stroke="#f8bbd0" stroke-width="1.2" d="M1400.78,-972.57C1400.78,-1085.87 1400.78,-1273 1400.78,-1273 1400.78,-1273 1505.32,-1273 1505.32,-1273"/>
<polygon fill="#f8bbd0" stroke="#f8bbd0" stroke-width="1.2" points="1512.32,-1273 1505.32,-1276.15 1510.29,-1273.1 1505.32,-1273.1 1505.32,-1273 1505.32,-1272.9 1510.29,-1272.9 1505.32,-1269.85 1512.32,-1273"/>
<text xml:space="preserve" text-anchor="middle" x="1625.5" y="-1102.1" font-family="Helvetica, Arial, sans-serif" font-size="9.00" fill="#e91e63"> logging setup</text>
</g>
<!-- node_state -->
<g id="node6" class="node">
<title>node_state</title>
<path fill="#ffffff" stroke="none" stroke-width="1.2" d="M186.28,-574.2C186.28,-574.2 39.72,-574.2 39.72,-574.2 33.72,-574.2 27.72,-568.2 27.72,-562.2 27.72,-562.2 27.72,-442.4 27.72,-442.4 27.72,-436.4 33.72,-430.4 39.72,-430.4 39.72,-430.4 186.28,-430.4 186.28,-430.4 192.28,-430.4 198.28,-436.4 198.28,-442.4 198.28,-442.4 198.28,-562.2 198.28,-562.2 198.28,-568.2 192.28,-574.2 186.28,-574.2"/>
<polygon fill="#e1f5fe" stroke="none" points="42.12,-444.8 42.12,-559.8 183.88,-559.8 183.88,-444.8 42.12,-444.8"/>
<polygon fill="#bbdefb" stroke="none" points="42.12,-514.8 42.12,-559.8 183.88,-559.8 183.88,-514.8 42.12,-514.8"/>
<polygon fill="none" stroke="#b3e5fc" points="42.12,-514.8 42.12,-559.8 183.88,-559.8 183.88,-514.8 42.12,-514.8"/>
<text xml:space="preserve" text-anchor="start" x="74.69" y="-537.2" font-family="Helvetica, Arial, sans-serif" font-weight="bold" font-size="14.00" fill="#1565c0">APP STATE</text>
<text xml:space="preserve" text-anchor="start" x="99.13" y="-527.7" font-family="Helvetica, Arial, sans-serif" font-size="9.00" fill="#1976d2">state.py</text>
<polygon fill="none" stroke="#b3e5fc" points="42.12,-444.8 42.12,-514.8 183.88,-514.8 183.88,-444.8 42.12,-444.8"/>
<text xml:space="preserve" text-anchor="start" x="60.12" y="-496.6" font-family="Helvetica, Arial, sans-serif" font-size="8.00" fill="#0d47a1">                • Image Paths Storage</text>
<text xml:space="preserve" text-anchor="start" x="61.24" y="-487" font-family="Helvetica, Arial, sans-serif" font-size="8.00" fill="#0d47a1">                • Current Image Data</text>
<text xml:space="preserve" text-anchor="start" x="60.89" y="-477.4" font-family="Helvetica, Arial, sans-serif" font-size="8.00" fill="#0d47a1">                • Annotation Records</text>
<text xml:space="preserve" text-anchor="start" x="64.67" y="-467.8" font-family="Helvetica, Arial, sans-serif" font-size="8.00" fill="#0d47a1">                • Undo/Redo Stack</text>
<text xml:space="preserve" text-anchor="start" x="53.12" y="-458.2" font-family="Helvetica, Arial, sans-serif" font-size="8.00" fill="#0d47a1">                • Selection State                </text>
</g>
<!-- node_main&#45;&gt;node_state -->
<g id="edge5" class="edge">
<title>node_main-&gt;node_state</title>
<path fill="none" stroke="#ffecb3" stroke-width="1.5" d="M1229.24,-930C917.65,-930 84.57,-930 84.57,-930 84.57,-930 84.57,-582.72 84.57,-582.72"/>
<polygon fill="#ffecb3" stroke="#ffecb3" stroke-width="1.5" points="84.57,-575.72 87.72,-582.71 84.82,-577.39 84.82,-582.72 84.57,-582.72 84.32,-582.72 84.32,-577.39 81.42,-582.72 84.57,-575.72"/>
<text xml:space="preserve" text-anchor="middle" x="161.99" y="-708.3" font-family="Helvetica, Arial, sans-serif" font-size="9.00" fill="#ff9800"> initializes state</text>
</g>
<!-- node_main&#45;&gt;node_state -->
<!-- node_manager -->
<g id="node7" class="node">
<title>node_manager</title>
<path fill="#ffffff" stroke="none" stroke-width="1.2" d="M554.32,-569.4C554.32,-569.4 353.68,-569.4 353.68,-569.4 347.68,-569.4 341.68,-563.4 341.68,-557.4 341.68,-557.4 341.68,-447.2 341.68,-447.2 341.68,-441.2 347.68,-435.2 353.68,-435.2 353.68,-435.2 554.32,-435.2 554.32,-435.2 560.32,-435.2 566.32,-441.2 566.32,-447.2 566.32,-447.2 566.32,-557.4 566.32,-557.4 566.32,-563.4 560.32,-569.4 554.32,-569.4"/>
<polygon fill="#e1f5fe" stroke="none" points="356.08,-449.6 356.08,-555 551.92,-555 551.92,-449.6 356.08,-449.6"/>
<polygon fill="#bbdefb" stroke="none" points="356.08,-510 356.08,-555 551.92,-555 551.92,-510 356.08,-510"/>
<polygon fill="none" stroke="#b3e5fc" points="356.08,-510 356.08,-555 551.92,-555 551.92,-510 356.08,-510"/>
<text xml:space="preserve" text-anchor="start" x="367.08" y="-532.4" font-family="Helvetica, Arial, sans-serif" font-weight="bold" font-size="14.00" fill="#1565c0">ANNOTATION MANAGER</text>
<text xml:space="preserve" text-anchor="start" x="431.13" y="-522.9" font-family="Helvetica, Arial, sans-serif" font-size="9.00" fill="#1976d2">managers.py</text>
<polygon fill="none" stroke="#b3e5fc" points="356.08,-449.6 356.08,-510 551.92,-510 551.92,-449.6 356.08,-449.6"/>
<text xml:space="preserve" text-anchor="start" x="384.52" y="-491.8" font-family="Helvetica, Arial, sans-serif" font-size="8.00" fill="#0d47a1">                • YOLO Format I/O</text>
<text xml:space="preserve" text-anchor="start" x="381.85" y="-482.2" font-family="Helvetica, Arial, sans-serif" font-size="8.00" fill="#0d47a1">                • File Path Resolution</text>
<text xml:space="preserve" text-anchor="start" x="378.63" y="-472.6" font-family="Helvetica, Arial, sans-serif" font-size="8.00" fill="#0d47a1">                • Annotation Validation</text>
<text xml:space="preserve" text-anchor="start" x="367.08" y="-463" font-family="Helvetica, Arial, sans-serif" font-size="8.00" fill="#0d47a1">                • Data Import/Export                </text>
</g>
<!-- node_main&#45;&gt;node_manager -->
<g id="edge8" class="edge">
<title>node_main-&gt;node_manager</title>
<path fill="none" stroke="#bbdefb" stroke-width="1.3" d="M1229.14,-888C1010.08,-888 556.91,-888 556.91,-888 556.91,-888 556.91,-577.63 556.91,-577.63"/>
<polygon fill="#bbdefb" stroke="#bbdefb" stroke-width="1.3" points="556.91,-570.63 560.06,-577.63 557.06,-572.54 557.06,-577.63 556.91,-577.63 556.76,-577.63 556.76,-572.54 553.76,-577.63 556.91,-570.63"/>
<text xml:space="preserve" text-anchor="middle" x="754.49" y="-708.3" font-family="Helvetica, Arial, sans-serif" font-size="9.00" fill="#1976d2"> uses manager</text>
</g>
<!-- node_ui_mgr -->
<g id="node8" class="node">
<title>node_ui_mgr</title>
<path fill="#ffffff" stroke="none" stroke-width="1.2" d="M795.62,-569.4C795.62,-569.4 650.38,-569.4 650.38,-569.4 644.38,-569.4 638.38,-563.4 638.38,-557.4 638.38,-557.4 638.38,-447.2 638.38,-447.2 638.38,-441.2 644.38,-435.2 650.38,-435.2 650.38,-435.2 795.62,-435.2 795.62,-435.2 801.62,-435.2 807.62,-441.2 807.62,-447.2 807.62,-447.2 807.62,-557.4 807.62,-557.4 807.62,-563.4 801.62,-569.4 795.62,-569.4"/>
<polygon fill="#e8f5e9" stroke="none" points="652.78,-449.6 652.78,-555 793.22,-555 793.22,-449.6 652.78,-449.6"/>
<polygon fill="#dcedc8" stroke="none" points="652.78,-510 652.78,-555 793.22,-555 793.22,-510 652.78,-510"/>
<polygon fill="none" stroke="#c8e6c9" points="652.78,-510 652.78,-555 793.22,-555 793.22,-510 652.78,-510"/>
<text xml:space="preserve" text-anchor="start" x="676.53" y="-532.4" font-family="Helvetica, Arial, sans-serif" font-weight="bold" font-size="14.00" fill="#558b2f">UI MANAGER</text>
<text xml:space="preserve" text-anchor="start" x="713.87" y="-522.9" font-family="Helvetica, Arial, sans-serif" font-size="9.00" fill="#689f38">ui.py</text>
<polygon fill="none" stroke="#c8e6c9" points="652.78,-449.6 652.78,-510 793.22,-510 793.22,-449.6 652.78,-449.6"/>
<text xml:space="preserve" text-anchor="start" x="667.12" y="-491.8" font-family="Helvetica, Arial, sans-serif" font-size="8.00" fill="#33691e">                • Interface Construction</text>
<text xml:space="preserve" text-anchor="start" x="669.35" y="-482.2" font-family="Helvetica, Arial, sans-serif" font-size="8.00" fill="#33691e">                • Widget Management</text>
<text xml:space="preserve" text-anchor="start" x="668.23" y="-472.6" font-family="Helvetica, Arial, sans-serif" font-size="8.00" fill="#33691e">                • Layout Configuration</text>
<text xml:space="preserve" text-anchor="start" x="663.78" y="-463" font-family="Helvetica, Arial, sans-serif" font-size="8.00" fill="#33691e">                • Event Binding                </text>
</g>
<!-- node_main&#45;&gt;node_ui_mgr -->
<g id="edge4" class="edge">
<title>node_main-&gt;node_ui_mgr</title>
<path fill="none" stroke="#ffecb3" stroke-width="1.5" d="M1229.46,-867C1049.59,-867 723,-867 723,-867 723,-867 723,-578.02 723,-578.02"/>
<polygon fill="#ffecb3" stroke="#ffecb3" stroke-width="1.5" points="723,-571.02 726.15,-578.02 723.25,-572.69 723.25,-578.02 723,-578.02 722.75,-578.02 722.75,-572.69 719.85,-578.02 723,-571.02"/>
<text xml:space="preserve" text-anchor="middle" x="1074.49" y="-708.3" font-family="Helvetica, Arial, sans-serif" font-size="9.00" fill="#ff9800"> initializes UI</text>
</g>
<!-- node_analyzer -->
<g id="node10" class="node">
<title>node_analyzer</title>
<path fill="#ffffff" stroke="none" stroke-width="1.2" d="M897.68,-215.8C897.68,-215.8 796.32,-215.8 796.32,-215.8 790.32,-215.8 784.32,-209.8 784.32,-203.8 784.32,-203.8 784.32,-109 784.32,-109 784.32,-103 790.32,-97 796.32,-97 796.32,-97 897.68,-97 897.68,-97 903.68,-97 909.68,-103 909.68,-109 909.68,-109 909.68,-203.8 909.68,-203.8 909.68,-209.8 903.68,-215.8 897.68,-215.8"/>
<polygon fill="#f3e5f5" stroke="none" points="798.72,-111.4 798.72,-201.4 895.28,-201.4 895.28,-111.4 798.72,-111.4"/>
<polygon fill="#e1bee7" stroke="none" points="798.72,-166.6 798.72,-201.4 895.28,-201.4 895.28,-166.6 798.72,-166.6"/>
<polygon fill="none" stroke="#e1bee7" points="798.72,-166.6 798.72,-201.4 895.28,-201.4 895.28,-166.6 798.72,-166.6"/>
<text xml:space="preserve" text-anchor="start" x="807.72" y="-180.8" font-family="Helvetica, Arial, sans-serif" font-weight="bold" font-size="14.00" fill="#7b1fa2">ANALYZER</text>
<polygon fill="none" stroke="#e1bee7" points="798.72,-139 798.72,-166.6 895.28,-166.6 895.28,-139 798.72,-139"/>
<text xml:space="preserve" text-anchor="start" x="812.46" y="-150.4" font-family="Helvetica, Arial, sans-serif" font-size="8.00" fill="#9575cd">analisador_dataset.py</text>
<polygon fill="none" stroke="#e1bee7" points="798.72,-111.4 798.72,-139 895.28,-139 895.28,-111.4 798.72,-111.4"/>
<text xml:space="preserve" text-anchor="start" x="809.89" y="-122.8" font-family="Helvetica, Arial, sans-serif" font-size="8.00" fill="#ba68c8">Dataset Analysis Tools</text>
</g>
<!-- node_main&#45;&gt;node_analyzer -->
<g id="edge10" class="edge">
<title>node_main-&gt;node_analyzer</title>
<path fill="none" stroke="#e1bee7" stroke-width="1.1" stroke-dasharray="1,5" d="M1229.14,-846C1089.63,-846 873.83,-846 873.83,-846 873.83,-846 873.83,-224.13 873.83,-224.13"/>
<polygon fill="#e1bee7" stroke="#e1bee7" stroke-width="1.1" points="873.83,-217.13 876.98,-224.13 873.88,-219.29 873.88,-224.13 873.83,-224.13 873.78,-224.13 873.78,-219.29 870.68,-224.13 873.83,-217.13"/>
</g>
<!-- node_grid -->
<g id="node11" class="node">
<title>node_grid</title>
<path fill="#ffffff" stroke="none" stroke-width="1.2" d="M1186.6,-215.8C1186.6,-215.8 1065.4,-215.8 1065.4,-215.8 1059.4,-215.8 1053.4,-209.8 1053.4,-203.8 1053.4,-203.8 1053.4,-109 1053.4,-109 1053.4,-103 1059.4,-97 1065.4,-97 1065.4,-97 1186.6,-97 1186.6,-97 1192.6,-97 1198.6,-103 1198.6,-109 1198.6,-109 1198.6,-203.8 1198.6,-203.8 1198.6,-209.8 1192.6,-215.8 1186.6,-215.8"/>
<polygon fill="#f3e5f5" stroke="none" points="1067.8,-111.4 1067.8,-201.4 1184.2,-201.4 1184.2,-111.4 1067.8,-111.4"/>
<polygon fill="#e1bee7" stroke="none" points="1067.8,-166.6 1067.8,-201.4 1184.2,-201.4 1184.2,-166.6 1067.8,-166.6"/>
<polygon fill="none" stroke="#e1bee7" points="1067.8,-166.6 1067.8,-201.4 1184.2,-201.4 1184.2,-166.6 1067.8,-166.6"/>
<text xml:space="preserve" text-anchor="start" x="1076.8" y="-180.8" font-family="Helvetica, Arial, sans-serif" font-weight="bold" font-size="14.00" fill="#7b1fa2">GRID VIEWER</text>
<polygon fill="none" stroke="#e1bee7" points="1067.8,-139 1067.8,-166.6 1184.2,-166.6 1184.2,-139 1067.8,-139"/>
<text xml:space="preserve" text-anchor="start" x="1093.01" y="-150.4" font-family="Helvetica, Arial, sans-serif" font-size="8.00" fill="#9575cd">visualizador_grid.py</text>
<polygon fill="none" stroke="#e1bee7" points="1067.8,-111.4 1067.8,-139 1184.2,-139 1184.2,-111.4 1067.8,-111.4"/>
<text xml:space="preserve" text-anchor="start" x="1092.9" y="-122.8" font-family="Helvetica, Arial, sans-serif" font-size="8.00" fill="#ba68c8">Batch Image Viewer</text>
</g>
<!-- node_main&#45;&gt;node_grid -->
<g id="edge11" class="edge">
<title>node_main-&gt;node_grid</title>
<path fill="none" stroke="#e1bee7" stroke-width="1.1" stroke-dasharray="1,5" d="M1229.4,-825C1204.73,-825 1185.94,-825 1185.94,-825 1185.94,-825 1185.94,-224.07 1185.94,-224.07"/>
<polygon fill="#e1bee7" stroke="#e1bee7" stroke-width="1.1" points="1185.94,-217.07 1189.09,-224.07 1185.99,-219.23 1185.99,-224.07 1185.94,-224.07 1185.89,-224.07 1185.89,-219.23 1182.79,-224.07 1185.94,-217.07"/>
</g>
<!-- node_split -->
<g id="node12" class="node">
<title>node_split</title>
<path fill="#ffffff" stroke="none" stroke-width="1.2" d="M1479.94,-215.8C1479.94,-215.8 1354.06,-215.8 1354.06,-215.8 1348.06,-215.8 1342.06,-209.8 1342.06,-203.8 1342.06,-203.8 1342.06,-109 1342.06,-109 1342.06,-103 1348.06,-97 1354.06,-97 1354.06,-97 1479.94,-97 1479.94,-97 1485.94,-97 1491.94,-103 1491.94,-109 1491.94,-109 1491.94,-203.8 1491.94,-203.8 1491.94,-209.8 1485.94,-215.8 1479.94,-215.8"/>
<polygon fill="#f3e5f5" stroke="none" points="1356.46,-111.4 1356.46,-201.4 1477.54,-201.4 1477.54,-111.4 1356.46,-111.4"/>
<polygon fill="#e1bee7" stroke="none" points="1356.46,-166.6 1356.46,-201.4 1477.54,-201.4 1477.54,-166.6 1356.46,-166.6"/>
<polygon fill="none" stroke="#e1bee7" points="1356.46,-166.6 1356.46,-201.4 1477.54,-201.4 1477.54,-166.6 1356.46,-166.6"/>
<text xml:space="preserve" text-anchor="start" x="1365.46" y="-180.8" font-family="Helvetica, Arial, sans-serif" font-weight="bold" font-size="14.00" fill="#7b1fa2">SPLIT WIZARD</text>
<polygon fill="none" stroke="#e1bee7" points="1356.46,-139 1356.46,-166.6 1477.54,-166.6 1477.54,-139 1356.46,-139"/>
<text xml:space="preserve" text-anchor="start" x="1377.34" y="-150.4" font-family="Helvetica, Arial, sans-serif" font-size="8.00" fill="#9575cd">window_split_wizard.py</text>
<polygon fill="none" stroke="#e1bee7" points="1356.46,-111.4 1356.46,-139 1477.54,-139 1477.54,-111.4 1356.46,-111.4"/>
<text xml:space="preserve" text-anchor="start" x="1390.22" y="-122.8" font-family="Helvetica, Arial, sans-serif" font-size="8.00" fill="#ba68c8">Dataset Splitting</text>
</g>
<!-- node_main&#45;&gt;node_split -->
<g id="edge12" class="edge">
<title>node_main-&gt;node_split</title>
<path fill="none" stroke="#e1bee7" stroke-width="1.1" stroke-dasharray="1,5" d="M1401.48,-803.45C1401.48,-803.45 1401.48,-223.93 1401.48,-223.93"/>
<polygon fill="#e1bee7" stroke="#e1bee7" stroke-width="1.1" points="1401.48,-216.93 1404.63,-223.93 1401.53,-219.09 1401.53,-223.93 1401.48,-223.93 1401.43,-223.93 1401.43,-219.09 1398.33,-223.93 1401.48,-216.93"/>
</g>
<!-- node_newproj -->
<g id="node13" class="node">
<title>node_newproj</title>
<path fill="#ffffff" stroke="none" stroke-width="1.2" d="M1772.54,-215.8C1772.54,-215.8 1647.46,-215.8 1647.46,-215.8 1641.46,-215.8 1635.46,-209.8 1635.46,-203.8 1635.46,-203.8 1635.46,-109 1635.46,-109 1635.46,-103 1641.46,-97 1647.46,-97 1647.46,-97 1772.54,-97 1772.54,-97 1778.54,-97 1784.54,-103 1784.54,-109 1784.54,-109 1784.54,-203.8 1784.54,-203.8 1784.54,-209.8 1778.54,-215.8 1772.54,-215.8"/>
<polygon fill="#f3e5f5" stroke="none" points="1649.86,-111.4 1649.86,-201.4 1770.14,-201.4 1770.14,-111.4 1649.86,-111.4"/>
<polygon fill="#e1bee7" stroke="none" points="1649.86,-166.6 1649.86,-201.4 1770.14,-201.4 1770.14,-166.6 1649.86,-166.6"/>
<polygon fill="none" stroke="#e1bee7" points="1649.86,-166.6 1649.86,-201.4 1770.14,-201.4 1770.14,-166.6 1649.86,-166.6"/>
<text xml:space="preserve" text-anchor="start" x="1658.86" y="-180.8" font-family="Helvetica, Arial, sans-serif" font-weight="bold" font-size="14.00" fill="#7b1fa2">NEW PROJECT</text>
<polygon fill="none" stroke="#e1bee7" points="1649.86,-139 1649.86,-166.6 1770.14,-166.6 1770.14,-139 1649.86,-139"/>
<text xml:space="preserve" text-anchor="start" x="1670.34" y="-150.4" font-family="Helvetica, Arial, sans-serif" font-size="8.00" fill="#9575cd">window_new_project.py</text>
<polygon fill="none" stroke="#e1bee7" points="1649.86,-111.4 1649.86,-139 1770.14,-139 1770.14,-111.4 1649.86,-111.4"/>
<text xml:space="preserve" text-anchor="start" x="1675.79" y="-122.8" font-family="Helvetica, Arial, sans-serif" font-size="8.00" fill="#ba68c8">Project Setup Wizard</text>
</g>
<!-- node_main&#45;&gt;node_newproj -->
<g id="edge13" class="edge">
<title>node_main-&gt;node_newproj</title>
<path fill="none" stroke="#e1bee7" stroke-width="1.1" stroke-dasharray="1,5" d="M1460.46,-846C1550.32,-846 1659.87,-846 1659.87,-846 1659.87,-846 1659.87,-224.13 1659.87,-224.13"/>
<polygon fill="#e1bee7" stroke="#e1bee7" stroke-width="1.1" points="1659.87,-217.13 1663.02,-224.13 1659.92,-219.29 1659.92,-224.13 1659.87,-224.13 1659.82,-224.13 1659.82,-219.29 1656.72,-224.13 1659.87,-217.13"/>
</g>
<!-- node_classmgr -->
<g id="node14" class="node">
<title>node_classmgr</title>
<path fill="#ffffff" stroke="none" stroke-width="1.2" d="M2085.66,-215.8C2085.66,-215.8 1940.34,-215.8 1940.34,-215.8 1934.34,-215.8 1928.34,-209.8 1928.34,-203.8 1928.34,-203.8 1928.34,-109 1928.34,-109 1928.34,-103 1934.34,-97 1940.34,-97 1940.34,-97 2085.66,-97 2085.66,-97 2091.66,-97 2097.66,-103 2097.66,-109 2097.66,-109 2097.66,-203.8 2097.66,-203.8 2097.66,-209.8 2091.66,-215.8 2085.66,-215.8"/>
<polygon fill="#f3e5f5" stroke="none" points="1942.74,-111.4 1942.74,-201.4 2083.26,-201.4 2083.26,-111.4 1942.74,-111.4"/>
<polygon fill="#e1bee7" stroke="none" points="1942.74,-166.6 1942.74,-201.4 2083.26,-201.4 2083.26,-166.6 1942.74,-166.6"/>
<polygon fill="none" stroke="#e1bee7" points="1942.74,-166.6 1942.74,-201.4 2083.26,-201.4 2083.26,-166.6 1942.74,-166.6"/>
<text xml:space="preserve" text-anchor="start" x="1951.74" y="-180.8" font-family="Helvetica, Arial, sans-serif" font-weight="bold" font-size="14.00" fill="#7b1fa2">CLASS MANAGER</text>
<polygon fill="none" stroke="#e1bee7" points="1942.74,-139 1942.74,-166.6 2083.26,-166.6 2083.26,-139 1942.74,-139"/>
<text xml:space="preserve" text-anchor="start" x="1969.57" y="-150.4" font-family="Helvetica, Arial, sans-serif" font-size="8.00" fill="#9575cd">window_class_manager.py</text>
<polygon fill="none" stroke="#e1bee7" points="1942.74,-111.4 1942.74,-139 2083.26,-139 2083.26,-111.4 1942.74,-111.4"/>
<text xml:space="preserve" text-anchor="start" x="1982.45" y="-122.8" font-family="Helvetica, Arial, sans-serif" font-size="8.00" fill="#ba68c8">Class Management</text>
</g>
<!-- node_main&#45;&gt;node_classmgr -->
<g id="edge14" class="edge">
<title>node_main-&gt;node_classmgr</title>
<path fill="none" stroke="#e1bee7" stroke-width="1.1" stroke-dasharray="1,5" d="M1460.6,-888C1633.42,-888 1939.06,-888 1939.06,-888 1939.06,-888 1939.06,-223.99 1939.06,-223.99"/>
<polygon fill="#e1bee7" stroke="#e1bee7" stroke-width="1.1" points="1939.06,-216.99 1942.21,-223.99 1939.11,-219.15 1939.11,-223.99 1939.06,-223.99 1939.01,-223.99 1939.01,-219.15 1935.91,-223.99 1939.06,-216.99"/>
</g>
<!-- node_about -->
<g id="node15" class="node">
<title>node_about</title>
<path fill="#ffffff" stroke="none" stroke-width="1.2" d="M2354.39,-215.8C2354.39,-215.8 2253.61,-215.8 2253.61,-215.8 2247.61,-215.8 2241.61,-209.8 2241.61,-203.8 2241.61,-203.8 2241.61,-109 2241.61,-109 2241.61,-103 2247.61,-97 2253.61,-97 2253.61,-97 2354.39,-97 2354.39,-97 2360.39,-97 2366.39,-103 2366.39,-109 2366.39,-109 2366.39,-203.8 2366.39,-203.8 2366.39,-209.8 2360.39,-215.8 2354.39,-215.8"/>
<polygon fill="#f3e5f5" stroke="none" points="2256.01,-111.4 2256.01,-201.4 2351.99,-201.4 2351.99,-111.4 2256.01,-111.4"/>
<polygon fill="#e1bee7" stroke="none" points="2256.01,-166.6 2256.01,-201.4 2351.99,-201.4 2351.99,-166.6 2256.01,-166.6"/>
<polygon fill="none" stroke="#e1bee7" points="2256.01,-166.6 2256.01,-201.4 2351.99,-201.4 2351.99,-166.6 2256.01,-166.6"/>
<text xml:space="preserve" text-anchor="start" x="2279.11" y="-180.8" font-family="Helvetica, Arial, sans-serif" font-weight="bold" font-size="14.00" fill="#7b1fa2">ABOUT</text>
<polygon fill="none" stroke="#e1bee7" points="2256.01,-139 2256.01,-166.6 2351.99,-166.6 2351.99,-139 2256.01,-139"/>
<text xml:space="preserve" text-anchor="start" x="2275.22" y="-150.4" font-family="Helvetica, Arial, sans-serif" font-size="8.00" fill="#9575cd">window_about.py</text>
<polygon fill="none" stroke="#e1bee7" points="2256.01,-111.4 2256.01,-139 2351.99,-139 2351.99,-111.4 2256.01,-111.4"/>
<text xml:space="preserve" text-anchor="start" x="2265.01" y="-122.8" font-family="Helvetica, Arial, sans-serif" font-size="8.00" fill="#ba68c8">Application Information</text>
</g>
<!-- node_main&#45;&gt;node_about -->
<g id="edge15" class="edge">
<title>node_main-&gt;node_about</title>
<path fill="none" stroke="#e1bee7" stroke-width="1.1" stroke-dasharray="1,5" d="M1460.61,-930C1708.52,-930 2268.9,-930 2268.9,-930 2268.9,-930 2268.9,-223.84 2268.9,-223.84"/>
<polygon fill="#e1bee7" stroke="#e1bee7" stroke-width="1.1" points="2268.9,-216.84 2272.05,-223.84 2268.95,-219 2268.95,-223.84 2268.9,-223.84 2268.85,-223.84 2268.85,-219 2265.75,-223.84 2268.9,-216.84"/>
</g>
<!-- node_state&#45;&gt;node_analyzer -->
<!-- node_manager&#45;&gt;node_state -->
<g id="edge9" class="edge">
<title>node_manager-&gt;node_state</title>
<path fill="none" stroke="#bbdefb" stroke-width="1.3" d="M341.87,-502C341.87,-502 206.75,-502 206.75,-502"/>
<polygon fill="#bbdefb" stroke="#bbdefb" stroke-width="1.3" points="199.75,-502 206.75,-498.85 201.66,-501.85 206.75,-501.85 206.75,-502 206.75,-502.15 201.66,-502.15 206.75,-505.15 199.75,-502"/>
</g>
<!-- node_canvas_ctrl -->
<g id="node9" class="node">
<title>node_canvas_ctrl</title>
<path fill="#ffffff" stroke="none" stroke-width="1.2" d="M1151.11,-569.4C1151.11,-569.4 962.89,-569.4 962.89,-569.4 956.89,-569.4 950.89,-563.4 950.89,-557.4 950.89,-557.4 950.89,-447.2 950.89,-447.2 950.89,-441.2 956.89,-435.2 962.89,-435.2 962.89,-435.2 1151.11,-435.2 1151.11,-435.2 1157.11,-435.2 1163.11,-441.2 1163.11,-447.2 1163.11,-447.2 1163.11,-557.4 1163.11,-557.4 1163.11,-563.4 1157.11,-569.4 1151.11,-569.4"/>
<polygon fill="#e8f5e9" stroke="none" points="965.29,-449.6 965.29,-555 1148.71,-555 1148.71,-449.6 965.29,-449.6"/>
<polygon fill="#dcedc8" stroke="none" points="965.29,-510 965.29,-555 1148.71,-555 1148.71,-510 965.29,-510"/>
<polygon fill="none" stroke="#c8e6c9" points="965.29,-510 965.29,-555 1148.71,-555 1148.71,-510 965.29,-510"/>
<text xml:space="preserve" text-anchor="start" x="976.29" y="-532.4" font-family="Helvetica, Arial, sans-serif" font-weight="bold" font-size="14.00" fill="#558b2f">CANVAS CONTROLLER</text>
<text xml:space="preserve" text-anchor="start" x="1039.13" y="-522.9" font-family="Helvetica, Arial, sans-serif" font-size="9.00" fill="#689f38">canvas.py</text>
<polygon fill="none" stroke="#c8e6c9" points="965.29,-449.6 965.29,-510 1148.71,-510 1148.71,-449.6 965.29,-449.6"/>
<text xml:space="preserve" text-anchor="start" x="983.85" y="-491.8" font-family="Helvetica, Arial, sans-serif" font-size="8.00" fill="#33691e">                • Zoom/Pan Operations</text>
<text xml:space="preserve" text-anchor="start" x="990.73" y="-482.2" font-family="Helvetica, Arial, sans-serif" font-size="8.00" fill="#33691e">                • Polygon Drawing</text>
<text xml:space="preserve" text-anchor="start" x="994.07" y="-472.6" font-family="Helvetica, Arial, sans-serif" font-size="8.00" fill="#33691e">                • Selection Tools</text>
<text xml:space="preserve" text-anchor="start" x="976.29" y="-463" font-family="Helvetica, Arial, sans-serif" font-size="8.00" fill="#33691e">                • Visual Feedback                </text>
</g>
<!-- node_ui_mgr&#45;&gt;node_canvas_ctrl -->
<g id="edge6" class="edge">
<title>node_ui_mgr-&gt;node_canvas_ctrl</title>
<path fill="none" stroke="#dcedc8" stroke-width="1.3" d="M807.28,-502C807.28,-502 942.59,-502 942.59,-502"/>
<polygon fill="#dcedc8" stroke="#dcedc8" stroke-width="1.3" points="949.59,-502 942.59,-505.15 947.68,-502.15 942.59,-502.15 942.59,-502 942.59,-501.85 947.68,-501.85 942.59,-498.85 949.59,-502"/>
</g>
<!-- node_canvas_ctrl&#45;&gt;node_state -->
<g id="edge7" class="edge">
<title>node_canvas_ctrl-&gt;node_state</title>
<path fill="none" stroke="#b3e5fc" stroke-width="1.2" stroke-dasharray="5,2" d="M1002.15,-435.28C1002.15,-384.35 1002.15,-323 1002.15,-323 1002.15,-323 84.57,-323 84.57,-323 84.57,-323 84.57,-421.94 84.57,-421.94"/>
<polygon fill="#b3e5fc" stroke="#b3e5fc" stroke-width="1.2" points="84.57,-428.94 81.42,-421.94 84.47,-426.9 84.47,-421.94 84.57,-421.94 84.67,-421.94 84.67,-426.9 87.72,-421.94 84.57,-428.94"/>
<text xml:space="preserve" text-anchor="middle" x="835" y="-654.5" font-family="Helvetica, Arial, sans-serif" font-size="9.00" fill="#1976d2"> reads/writes</text>
</g>
<!-- node_analyzer&#45;&gt;node_grid -->
<!-- node_grid&#45;&gt;node_split -->
<!-- node_split&#45;&gt;node_newproj -->
<!-- node_newproj&#45;&gt;node_classmgr -->
<!-- node_classmgr&#45;&gt;node_about -->
<!-- node_decoration1 -->
<g id="node16" class="node">
<title>node_decoration1</title>
<ellipse fill="#ffe4ec" stroke="#f8bbd0" stroke-width="1.2" cx="1767" cy="-1272.8" rx="10.8" ry="10.8"/>
</g>
<!-- cluster_infra -->
<g id="node19" class="node">
<title>cluster_infra</title>
<path fill="#ffffff" stroke="none" stroke-width="1.2" d="M1937.77,-1295.6C1937.77,-1295.6 1862.23,-1295.6 1862.23,-1295.6 1856.23,-1295.6 1850.23,-1289.6 1850.23,-1283.6 1850.23,-1283.6 1850.23,-1262 1850.23,-1262 1850.23,-1256 1856.23,-1250 1862.23,-1250 1862.23,-1250 1937.77,-1250 1937.77,-1250 1943.77,-1250 1949.77,-1256 1949.77,-1262 1949.77,-1262 1949.77,-1283.6 1949.77,-1283.6 1949.77,-1289.6 1943.77,-1295.6 1937.77,-1295.6"/>
<text xml:space="preserve" text-anchor="middle" x="1900" y="-1268.6" font-family="Helvetica, Arial, sans-serif" font-size="14.00">cluster_infra</text>
</g>
<!-- node_decoration1&#45;&gt;cluster_infra -->
<!-- node_decoration2 -->
<g id="node17" class="node">
<title>node_decoration2</title>
<ellipse fill="#e3f2fd" stroke="#bbdefb" stroke-width="1.2" cx="2033" cy="-1272.8" rx="10.8" ry="10.8"/>
</g>
<!-- cluster_model -->
<g id="node20" class="node">
<title>cluster_model</title>
<path fill="#ffffff" stroke="none" stroke-width="1.2" d="M2212.06,-1295.6C2212.06,-1295.6 2127.94,-1295.6 2127.94,-1295.6 2121.94,-1295.6 2115.94,-1289.6 2115.94,-1283.6 2115.94,-1283.6 2115.94,-1262 2115.94,-1262 2115.94,-1256 2121.94,-1250 2127.94,-1250 2127.94,-1250 2212.06,-1250 2212.06,-1250 2218.06,-1250 2224.06,-1256 2224.06,-1262 2224.06,-1262 2224.06,-1283.6 2224.06,-1283.6 2224.06,-1289.6 2218.06,-1295.6 2212.06,-1295.6"/>
<text xml:space="preserve" text-anchor="middle" x="2170" y="-1268.6" font-family="Helvetica, Arial, sans-serif" font-size="14.00">cluster_model</text>
</g>
<!-- node_decoration2&#45;&gt;cluster_model -->
<!-- node_decoration3 -->
<g id="node18" class="node">
<title>node_decoration3</title>
<ellipse fill="#fff8e1" stroke="#ffecb3" stroke-width="1.2" cx="2307" cy="-1272.8" rx="10.8" ry="10.8"/>
</g>
<!-- cluster_controller -->
<g id="node21" class="node">
<title>cluster_controller</title>
<path fill="#ffffff" stroke="none" stroke-width="1.2" d="M2505.77,-1295.6C2505.77,-1295.6 2402.23,-1295.6 2402.23,-1295.6 2396.23,-1295.6 2390.23,-1289.6 2390.23,-1283.6 2390.23,-1283.6 2390.23,-1262 2390.23,-1262 2390.23,-1256 2396.23,-1250 2402.23,-1250 2402.23,-1250 2505.77,-1250 2505.77,-1250 2511.77,-1250 2517.77,-1256 2517.77,-1262 2517.77,-1262 2517.77,-1283.6 2517.77,-1283.6 2517.77,-1289.6 2511.77,-1295.6 2505.77,-1295.6"/>
<text xml:space="preserve" text-anchor="middle" x="2454" y="-1268.6" font-family="Helvetica, Arial, sans-serif" font-size="14.00">cluster_controller</text>
</g>
<!-- node_decoration3&#45;&gt;cluster_controller -->
</g>
</svg>