<svg width="929" height="758" viewBox="0 0 696.75 568.5" xmlns="http://www.w3.org/2000/svg" xmlns:xlink="http://www.w3.org/1999/xlink">
<g id="graph0" class="graph" transform="translate(163.875, 2052.125)">
<title style="">YOLO_Annotation_Tool_v7</title>
<polygon fill="white" stroke="none" points="-4,4 -4,-1492.5 1870,-1492.5 1870,4 -4,4" style=""/>
<g id="clust1" class="cluster">
<title style="">cluster_main_layer</title>
<polygon fill="#f0f5ff" stroke="#4a86e8" points="250,-128.1 250,-1480.5 504,-1480.5 504,-128.1 250,-128.1" style=""/>
<text text-anchor="middle" x="377" y="-136.3" font-family="Segoe UI" font-size="14.00" style="">Núcleo da Aplicação</text>
</g>
<g id="clust2" class="cluster">
<title style="">cluster_core</title>
<polygon fill="#ffffff" stroke="#4a86e8" points="258,-1205.1 258,-1472.5 496,-1472.5 496,-1205.1 258,-1205.1" style=""/>
<text text-anchor="middle" x="377" y="-1213.3" font-family="Segoe UI" font-size="14.00" style="">Controlador Principal</text>
</g>
<g id="clust3" class="cluster">
<title style="">cluster_state</title>
<polygon fill="#ffffff" stroke="#4a86e8" points="258,-160.9 258,-344.3 444,-344.3 444,-160.9 258,-160.9" style=""/>
<text text-anchor="middle" x="351" y="-169.1" font-family="Segoe UI" font-size="14.00" style="">Modelo de Dados</text>
</g>
<g id="clust4" class="cluster">
<title style="">cluster_view_layer</title>
<polygon fill="#fff8e1" stroke="#ffa000" points="46,-510.1 46,-1165.3 242,-1165.3 242,-510.1 46,-510.1" style=""/>
<text text-anchor="middle" x="144" y="-518.3" font-family="Segoe UI" font-size="14.00" style="">Camada de Visualização</text>
</g>
<g id="clust5" class="cluster">
<title style="">cluster_service_layer</title>
<polygon fill="#f1f8e9" stroke="#689f38" points="1266,-352.3 1266,-922.1 1592,-922.1 1592,-352.3 1266,-352.3" style=""/>
<text text-anchor="middle" x="1429" y="-360.5" font-family="Segoe UI" font-size="14.00" style="">Serviços e Utilitários</text>
</g>
<g id="clust6" class="cluster">
<title style="">cluster_io</title>
<polygon fill="#ffffff" stroke="#689f38" points="1274,-385.1 1274,-914.1 1584,-914.1 1584,-385.1 1274,-385.1" style=""/>
<text text-anchor="middle" x="1429" y="-393.3" font-family="Segoe UI" font-size="14.00" style="">Gerenciamento de I/O</text>
</g>
<g id="clust7" class="cluster">
<title style="">cluster_tools_layer</title>
<polygon fill="#e8f5e9" stroke="#2e7d32" points="512,-727.1 512,-1118.9 1237,-1118.9 1237,-727.1 512,-727.1" style=""/>
<text text-anchor="middle" x="874.5" y="-735.3" font-family="Segoe UI" font-size="14.00" style="">Ferramentas Avançadas</text>
</g>
<g id="clust8" class="cluster">
<title style="">cluster_windows</title>
<polygon fill="#ffffff" stroke="#2e7d32" points="520,-1002.7 520,-1110.9 1035,-1110.9 1035,-1002.7 520,-1002.7" style=""/>
<text text-anchor="middle" x="777.5" y="-1010.9" font-family="Segoe UI" font-size="14.00" style="">Janelas de Configuração</text>
</g>
<g id="clust9" class="cluster">
<title style="">cluster_analysis</title>
<polygon fill="#ffffff" stroke="#2e7d32" points="784,-759.9 784,-960.1 966,-960.1 966,-759.9 784,-759.9" style=""/>
<text text-anchor="middle" x="875" y="-768.1" font-family="Segoe UI" font-size="14.00" style="">Análise de Dataset</text>
</g>
<g id="clust10" class="cluster">
<title style="">cluster_legend</title>
<polygon fill="none" stroke="gray" stroke-dasharray="5,2" points="1686,-246.2 1686,-1394.8 1858,-1394.8 1858,-246.2 1686,-246.2" style=""/>
<text text-anchor="middle" x="1772" y="-1378.2" font-family="Segoe UI" font-size="14.00" style="">Legenda</text>
</g>
<!-- MainApp -->
<g id="node1" class="node">
<title style="">MainApp</title>
<path fill="#e1f5fe" stroke="#0288d1" stroke-width="1.5" d="M277.53,-1238.4C277.53,-1238.4 476.47,-1238.4 476.47,-1238.4 482.47,-1238.4 488.47,-1244.4 488.47,-1250.4 488.47,-1250.4 488.47,-1452 488.47,-1452 488.47,-1458 482.47,-1464 476.47,-1464 476.47,-1464 277.53,-1464 277.53,-1464 271.53,-1464 265.53,-1458 265.53,-1452 265.53,-1452 265.53,-1250.4 265.53,-1250.4 265.53,-1244.4 271.53,-1238.4 277.53,-1238.4" style=""/>
<text text-anchor="middle" x="377" y="-1447.4" font-family="Segoe UI" font-size="14.00" style="">MainApplication</text>
<polyline fill="none" stroke="#0288d1" stroke-width="1.5" points="265.53,-1439.2 488.47,-1439.2" style=""/>
<text text-anchor="start" x="273.53" y="-1422.6" font-family="Segoe UI" font-size="14.00" style="">+ root: tk.Window</text>
<text text-anchor="start" x="273.53" y="-1405.8" font-family="Segoe UI" font-size="14.00" style="">+ ui: UIManager</text>
<text text-anchor="start" x="273.53" y="-1389" font-family="Segoe UI" font-size="14.00" style="">+ canvas: CanvasController</text>
<text text-anchor="start" x="273.53" y="-1372.2" font-family="Segoe UI" font-size="14.00" style="">+ app_state: AppState</text>
<text text-anchor="start" x="273.53" y="-1355.4" font-family="Segoe UI" font-size="14.00" style="">+ ann_manager: AnnotationManager</text>
<polyline fill="none" stroke="#0288d1" stroke-width="1.5" points="265.53,-1347.2 488.47,-1347.2" style=""/>
<text text-anchor="start" x="273.53" y="-1330.6" font-family="Segoe UI" font-size="14.00" style="">- _load_config()</text>
<text text-anchor="start" x="273.53" y="-1313.8" font-family="Segoe UI" font-size="14.00" style="">+ save_current_theme()</text>
<text text-anchor="start" x="273.53" y="-1297" font-family="Segoe UI" font-size="14.00" style="">+ delete_image_file()</text>
<text text-anchor="start" x="273.53" y="-1280.2" font-family="Segoe UI" font-size="14.00" style="">+ open_dataset_analyzer()</text>
<text text-anchor="start" x="273.53" y="-1263.4" font-family="Segoe UI" font-size="14.00" style="">+ perform_dataset_split()</text>
<text text-anchor="start" x="273.53" y="-1246.6" font-family="Segoe UI" font-size="14.00" style="">+ process_canvas_update()</text>
</g>
<!-- AppState -->
<g id="node2" class="node">
<title style="">AppState</title>
<path fill="#f3e5f5" stroke="#7b1fa2" stroke-width="1.5" d="M278.23,-194.2C278.23,-194.2 423.77,-194.2 423.77,-194.2 429.77,-194.2 435.77,-200.2 435.77,-206.2 435.77,-206.2 435.77,-323.8 435.77,-323.8 435.77,-329.8 429.77,-335.8 423.77,-335.8 423.77,-335.8 278.23,-335.8 278.23,-335.8 272.23,-335.8 266.23,-329.8 266.23,-323.8 266.23,-323.8 266.23,-206.2 266.23,-206.2 266.23,-200.2 272.23,-194.2 278.23,-194.2" style=""/>
<text text-anchor="middle" x="351" y="-319.2" font-family="Segoe UI" font-size="14.00" style="">AppState</text>
<polyline fill="none" stroke="#7b1fa2" stroke-width="1.5" points="266.23,-311 435.77,-311" style=""/>
<text text-anchor="start" x="274.23" y="-294.4" font-family="Segoe UI" font-size="14.00" style="">+ base_directory</text>
<text text-anchor="start" x="274.23" y="-277.6" font-family="Segoe UI" font-size="14.00" style="">+ image_paths: List</text>
<text text-anchor="start" x="274.23" y="-260.8" font-family="Segoe UI" font-size="14.00" style="">+ annotations: List</text>
<text text-anchor="start" x="274.23" y="-244" font-family="Segoe UI" font-size="14.00" style="">+ undo_stack: List</text>
<text text-anchor="start" x="274.23" y="-227.2" font-family="Segoe UI" font-size="14.00" style="">+ current_pil_image</text>
<polyline fill="none" stroke="#7b1fa2" stroke-width="1.5" points="266.23,-219 435.77,-219" style=""/>
<text text-anchor="start" x="274.23" y="-202.4" font-family="Segoe UI" font-size="14.00" style="">- get_current_image_path()</text>
</g>
<!-- MainApp&#45;&gt;AppState -->
<g id="edge3" class="edge">
<title style="">MainApp-&gt;AppState</title>
<path fill="none" stroke="#0288d1" stroke-width="2" d="M407.51,-1238.03C407.51,-1238.03 407.51,-349.26 407.51,-349.26" style=""/>
<polygon fill="#0288d1" stroke="#0288d1" stroke-width="2" points="411.01,-349.26 407.51,-339.26 404.01,-349.26 411.01,-349.26" style=""/>
<text text-anchor="middle" x="342.24" y="-869.7" font-family="Segoe UI" font-size="9.00" style="">Gerencia</text>
</g>
<!-- UIManager -->
<g id="node3" class="node">
<title style="">UIManager</title>
<path fill="#fff3e0" stroke="#f57c00" stroke-width="1.5" d="M70.44,-981.6C70.44,-981.6 221.56,-981.6 221.56,-981.6 227.56,-981.6 233.56,-987.6 233.56,-993.6 233.56,-993.6 233.56,-1144.8 233.56,-1144.8 233.56,-1150.8 227.56,-1156.8 221.56,-1156.8 221.56,-1156.8 70.44,-1156.8 70.44,-1156.8 64.44,-1156.8 58.44,-1150.8 58.44,-1144.8 58.44,-1144.8 58.44,-993.6 58.44,-993.6 58.44,-987.6 64.44,-981.6 70.44,-981.6" style=""/>
<text text-anchor="middle" x="146" y="-1140.2" font-family="Segoe UI" font-size="14.00" style="">UIManager</text>
<polyline fill="none" stroke="#f57c00" stroke-width="1.5" points="58.44,-1132 233.56,-1132" style=""/>
<text text-anchor="start" x="66.44" y="-1115.4" font-family="Segoe UI" font-size="14.00" style="">+ drawing_mode_var [D]</text>
<text text-anchor="start" x="66.44" y="-1098.6" font-family="Segoe UI" font-size="14.00" style="">+ listbox (Imagens)</text>
<text text-anchor="start" x="66.44" y="-1081.8" font-family="Segoe UI" font-size="14.00" style="">+ annotation_listbox</text>
<text text-anchor="start" x="66.44" y="-1065" font-family="Segoe UI" font-size="14.00" style="">+ theme_combo</text>
<polyline fill="none" stroke="#f57c00" stroke-width="1.5" points="58.44,-1056.8 233.56,-1056.8" style=""/>
<text text-anchor="start" x="66.44" y="-1040.2" font-family="Segoe UI" font-size="14.00" style="">- _create_widgets()</text>
<text text-anchor="start" x="66.44" y="-1023.4" font-family="Segoe UI" font-size="14.00" style="">+ refresh_image_list()</text>
<text text-anchor="start" x="66.44" y="-1006.6" font-family="Segoe UI" font-size="14.00" style="">+ refresh_annotation_list()</text>
<text text-anchor="start" x="66.44" y="-989.8" font-family="Segoe UI" font-size="14.00" style="">+ update_inspector_values()</text>
</g>
<!-- MainApp&#45;&gt;UIManager -->
<g id="edge1" class="edge">
<title style="">MainApp-&gt;UIManager</title>
<path fill="none" stroke="#0288d1" stroke-width="2" d="M351,-1238.14C351,-1179.93 351,-1121.03 351,-1121.03 351,-1121.03 246.86,-1121.03 246.86,-1121.03" style=""/>
<polygon fill="#0288d1" stroke="#0288d1" stroke-width="2" points="246.86,-1117.53 236.86,-1121.03 246.86,-1124.53 246.86,-1117.53" style=""/>
<text text-anchor="middle" x="291.75" y="-1189" font-family="Segoe UI" font-size="9.00" style="">Cria</text>
</g>
<!-- CanvasCtrl -->
<g id="node4" class="node">
<title style="">CanvasCtrl</title>
<path fill="#e8f5e8" stroke="#388e3c" stroke-width="1.5" d="M65.71,-543.4C65.71,-543.4 222.29,-543.4 222.29,-543.4 228.29,-543.4 234.29,-549.4 234.29,-555.4 234.29,-555.4 234.29,-706.6 234.29,-706.6 234.29,-712.6 228.29,-718.6 222.29,-718.6 222.29,-718.6 65.71,-718.6 65.71,-718.6 59.71,-718.6 53.71,-712.6 53.71,-706.6 53.71,-706.6 53.71,-555.4 53.71,-555.4 53.71,-549.4 59.71,-543.4 65.71,-543.4" style=""/>
<text text-anchor="middle" x="144" y="-702" font-family="Segoe UI" font-size="14.00" style="">CanvasController</text>
<polyline fill="none" stroke="#388e3c" stroke-width="1.5" points="53.71,-693.8 234.29,-693.8" style=""/>
<text text-anchor="start" x="61.71" y="-677.2" font-family="Segoe UI" font-size="14.00" style="">+ zoom_level</text>
<text text-anchor="start" x="61.71" y="-660.4" font-family="Segoe UI" font-size="14.00" style="">+ pan_offset</text>
<text text-anchor="start" x="61.71" y="-643.6" font-family="Segoe UI" font-size="14.00" style="">+ cached_bg_image</text>
<text text-anchor="start" x="61.71" y="-626.8" font-family="Segoe UI" font-size="14.00" style="">+ last_render_params</text>
<polyline fill="none" stroke="#388e3c" stroke-width="1.5" points="53.71,-618.6 234.29,-618.6" style=""/>
<text text-anchor="start" x="61.71" y="-602" font-family="Segoe UI" font-size="14.00" style="">- display_image() [Cache]</text>
<text text-anchor="start" x="61.71" y="-585.2" font-family="Segoe UI" font-size="14.00" style="">+ get_item_at()</text>
<text text-anchor="start" x="61.71" y="-568.4" font-family="Segoe UI" font-size="14.00" style="">+ move_selection_by_pixel()</text>
<text text-anchor="start" x="61.71" y="-551.6" font-family="Segoe UI" font-size="14.00" style="">+ resize_selection_side()</text>
</g>
<!-- MainApp&#45;&gt;CanvasCtrl -->
<g id="edge2" class="edge">
<title style="">MainApp-&gt;CanvasCtrl</title>
<path fill="none" stroke="#0288d1" stroke-width="2" d="M379.26,-1238.17C379.26,-1047.02 379.26,-680.45 379.26,-680.45 379.26,-680.45 247.65,-680.45 247.65,-680.45" style=""/>
<polygon fill="#0288d1" stroke="#0288d1" stroke-width="2" points="247.65,-676.95 237.65,-680.45 247.65,-683.95 247.65,-676.95" style=""/>
<text text-anchor="middle" x="7.75" y="-1066.5" font-family="Segoe UI" font-size="9.00" style="">Cria</text>
</g>
<!-- AnnManager -->
<g id="node5" class="node">
<title style="">AnnManager</title>
<path fill="#e8eaf6" stroke="#3949ab" stroke-width="1.5" d="M1294.29,-418.4C1294.29,-418.4 1563.71,-418.4 1563.71,-418.4 1569.71,-418.4 1575.71,-424.4 1575.71,-430.4 1575.71,-430.4 1575.71,-489.6 1575.71,-489.6 1575.71,-495.6 1569.71,-501.6 1563.71,-501.6 1563.71,-501.6 1294.29,-501.6 1294.29,-501.6 1288.29,-501.6 1282.29,-495.6 1282.29,-489.6 1282.29,-489.6 1282.29,-430.4 1282.29,-430.4 1282.29,-424.4 1288.29,-418.4 1294.29,-418.4" style=""/>
<text text-anchor="middle" x="1429" y="-485" font-family="Segoe UI" font-size="14.00" style="">AnnotationManager</text>
<polyline fill="none" stroke="#3949ab" stroke-width="1.5" points="1282.29,-476.8 1575.71,-476.8" style=""/>
<text text-anchor="middle" x="1342.6" y="-443.4" font-family="Segoe UI" font-size="14.00" style="">Métodos Estáticos</text>
<polyline fill="none" stroke="#3949ab" stroke-width="1.5" points="1402.91,-418.4 1402.91,-476.8" style=""/>
<text text-anchor="start" x="1410.91" y="-460.2" font-family="Segoe UI" font-size="14.00" style="">+ load_annotations()</text>
<text text-anchor="start" x="1410.91" y="-443.4" font-family="Segoe UI" font-size="14.00" style="">+ save_annotations()</text>
<text text-anchor="start" x="1410.91" y="-426.6" font-family="Segoe UI" font-size="14.00" style="">+ convert_to_yolo_format()</text>
</g>
<!-- MainApp&#45;&gt;AnnManager -->
<g id="edge9" class="edge">
<title style="">MainApp-&gt;AnnManager</title>
<path fill="none" stroke="#3949ab" stroke-dasharray="5,2" d="M446.31,-1238.32C446.31,-1001.41 446.31,-474.03 446.31,-474.03 446.31,-474.03 446.31,-462.52 446.31,-462.52" style=""/>
<polygon fill="#3949ab" stroke="#3949ab" points="1270.32,-477.37 1280.37,-474.01 1270.42,-470.38 1270.32,-477.37" style=""/>
<text text-anchor="middle" x="1340.49" y="-1066.5" font-family="Segoe UI" font-size="9.00" style="">Salva/Carrega</text>
</g>
<!-- DataUtils -->
<g id="node6" class="node">
<title style="">DataUtils</title>
<path fill="#fce4ec" stroke="#c2185b" stroke-width="1.5" d="M1354.09,-839.2C1354.09,-839.2 1563.91,-839.2 1563.91,-839.2 1569.91,-839.2 1575.91,-845.2 1575.91,-851.2 1575.91,-851.2 1575.91,-893.6 1575.91,-893.6 1575.91,-899.6 1569.91,-905.6 1563.91,-905.6 1563.91,-905.6 1354.09,-905.6 1354.09,-905.6 1348.09,-905.6 1342.09,-899.6 1342.09,-893.6 1342.09,-893.6 1342.09,-851.2 1342.09,-851.2 1342.09,-845.2 1348.09,-839.2 1354.09,-839.2" style=""/>
<text text-anchor="middle" x="1459" y="-889" font-family="Segoe UI" font-size="14.00" style="">DatasetUtils</text>
<polyline fill="none" stroke="#c2185b" stroke-width="1.5" points="1342.09,-880.8 1575.91,-880.8" style=""/>
<text text-anchor="middle" x="1402.4" y="-855.8" font-family="Segoe UI" font-size="14.00" style="">Métodos Estáticos</text>
<polyline fill="none" stroke="#c2185b" stroke-width="1.5" points="1462.71,-839.2 1462.71,-880.8" style=""/>
<text text-anchor="start" x="1470.71" y="-864.2" font-family="Segoe UI" font-size="14.00" style="">+ split_dataset()</text>
<text text-anchor="start" x="1470.71" y="-847.4" font-family="Segoe UI" font-size="14.00" style=""> [Move arquivos]</text>
</g>
<!-- MainApp&#45;&gt;DataUtils -->
<g id="edge10" class="edge">
<title style="">MainApp-&gt;DataUtils</title>
<path fill="none" stroke="#c2185b" stroke-dasharray="5,2" d="M488.72,-1325.76C765.17,-1325.76 1459,-1325.76 1459,-1325.76 1459,-1325.76 1459,-917.25 1459,-917.25" style=""/>
<polygon fill="#c2185b" stroke="#c2185b" points="1462.5,-917.25 1459,-907.25 1455.5,-917.25 1462.5,-917.25" style=""/>
<text text-anchor="middle" x="1470.87" y="-1189" font-family="Segoe UI" font-size="9.00" style="">Divide dataset</text>
</g>
<!-- NewProj -->
<g id="node7" class="node">
<title style="">NewProj</title>
<path fill="#e3f2fd" stroke="#1976d2" stroke-width="1.5" d="M539.52,-1036C539.52,-1036 664.48,-1036 664.48,-1036 670.48,-1036 676.48,-1042 676.48,-1048 676.48,-1048 676.48,-1090.4 676.48,-1090.4 676.48,-1096.4 670.48,-1102.4 664.48,-1102.4 664.48,-1102.4 539.52,-1102.4 539.52,-1102.4 533.52,-1102.4 527.52,-1096.4 527.52,-1090.4 527.52,-1090.4 527.52,-1048 527.52,-1048 527.52,-1042 533.52,-1036 539.52,-1036" style=""/>
<text text-anchor="middle" x="602" y="-1085.8" font-family="Segoe UI" font-size="14.00" style="">NewProjectWindow</text>
<polyline fill="none" stroke="#1976d2" stroke-width="1.5" points="527.52,-1077.6 676.48,-1077.6" style=""/>
<text text-anchor="start" x="535.52" y="-1061" font-family="Segoe UI" font-size="14.00" style="">• Cria estrutura YOLO</text>
<text text-anchor="start" x="535.52" y="-1044.2" font-family="Segoe UI" font-size="14.00" style="">• Gera data.yaml</text>
</g>
<!-- MainApp&#45;&gt;NewProj -->
<g id="edge11" class="edge">
<title style="">MainApp-&gt;NewProj</title>
<path fill="none" stroke="#1976d2" d="M477.93,-1237.94C477.93,-1163.74 477.93,-1080.43 477.93,-1080.43 477.93,-1080.43 515.81,-1080.43 515.81,-1080.43" style=""/>
<polygon fill="#1976d2" stroke="#1976d2" points="515.81,-1083.93 525.81,-1080.43 515.81,-1076.93 515.81,-1083.93" style=""/>
<text text-anchor="middle" x="613" y="-1189" font-family="Segoe UI" font-size="9.00" style="">Abre</text>
</g>
<!-- ClassMgr -->
<g id="node8" class="node">
<title style="">ClassMgr</title>
<path fill="#f3e5f5" stroke="#7b1fa2" stroke-width="1.5" d="M731.85,-1036C731.85,-1036 852.15,-1036 852.15,-1036 858.15,-1036 864.15,-1042 864.15,-1048 864.15,-1048 864.15,-1090.4 864.15,-1090.4 864.15,-1096.4 858.15,-1102.4 852.15,-1102.4 852.15,-1102.4 731.85,-1102.4 731.85,-1102.4 725.85,-1102.4 719.85,-1096.4 719.85,-1090.4 719.85,-1090.4 719.85,-1048 719.85,-1048 719.85,-1042 725.85,-1036 731.85,-1036" style=""/>
<text text-anchor="middle" x="792" y="-1085.8" font-family="Segoe UI" font-size="14.00" style="">ClassManagerWindow</text>
<polyline fill="none" stroke="#7b1fa2" stroke-width="1.5" points="719.85,-1077.6 864.15,-1077.6" style=""/>
<text text-anchor="start" x="727.85" y="-1061" font-family="Segoe UI" font-size="14.00" style="">• Edita classes.txt</text>
<text text-anchor="start" x="727.85" y="-1044.2" font-family="Segoe UI" font-size="14.00" style="">• Gerencia categorias</text>
</g>
<!-- MainApp&#45;&gt;ClassMgr -->
<g id="edge12" class="edge">
<title style="">MainApp-&gt;ClassMgr</title>
<path fill="none" stroke="#7b1fa2" d="M488.93,-1267.19C619.01,-1267.19 816.05,-1267.19 816.05,-1267.19 816.05,-1267.19 816.05,-1114.3 816.05,-1114.3" style=""/>
<polygon fill="#7b1fa2" stroke="#7b1fa2" points="819.55,-1114.3 816.05,-1104.3 812.55,-1114.3 819.55,-1114.3" style=""/>
<text text-anchor="middle" x="792" y="-1189" font-family="Segoe UI" font-size="9.00" style="">Abre</text>
</g>
<!-- SplitWiz -->
<g id="node9" class="node">
<title style="">SplitWiz</title>
<path fill="#fff3e0" stroke="#f57c00" stroke-width="1.5" d="M919.08,-1036C919.08,-1036 1014.92,-1036 1014.92,-1036 1020.92,-1036 1026.92,-1042 1026.92,-1048 1026.92,-1048 1026.92,-1090.4 1026.92,-1090.4 1026.92,-1096.4 1020.92,-1102.4 1014.92,-1102.4 1014.92,-1102.4 919.08,-1102.4 919.08,-1102.4 913.08,-1102.4 907.08,-1096.4 907.08,-1090.4 907.08,-1090.4 907.08,-1048 907.08,-1048 907.08,-1042 913.08,-1036 919.08,-1036" style=""/>
<text text-anchor="middle" x="967" y="-1085.8" font-family="Segoe UI" font-size="14.00" style="">SplitWizard</text>
<polyline fill="none" stroke="#f57c00" stroke-width="1.5" points="907.08,-1077.6 1026.92,-1077.6" style=""/>
<text text-anchor="start" x="915.08" y="-1061" font-family="Segoe UI" font-size="14.00" style="">• Configura splits</text>
<text text-anchor="start" x="915.08" y="-1044.2" font-family="Segoe UI" font-size="14.00" style="">• Gera gráficos</text>
</g>
<!-- MainApp&#45;&gt;SplitWiz -->
<g id="edge13" class="edge">
<title style="">MainApp-&gt;SplitWiz</title>
<path fill="none" stroke="#f57c00" d="M488.94,-1281.83C654.95,-1281.83 947.03,-1281.83 947.03,-1281.83 947.03,-1281.83 947.03,-1114.41 947.03,-1114.41" style=""/>
<polygon fill="#f57c00" stroke="#f57c00" points="950.53,-1114.41 947.03,-1104.41 943.53,-1114.41 950.53,-1114.41" style=""/>
<text text-anchor="middle" x="968" y="-1189" font-family="Segoe UI" font-size="9.00" style="">Abre</text>
</g>
<!-- Analyzer -->
<g id="node10" class="node">
<title style="">Analyzer</title>
<path fill="#e0f2f1" stroke="#00695c" stroke-width="1.5" d="M803.99,-793.2C803.99,-793.2 946.01,-793.2 946.01,-793.2 952.01,-793.2 958.01,-799.2 958.01,-805.2 958.01,-805.2 958.01,-939.6 958.01,-939.6 958.01,-945.6 952.01,-951.6 946.01,-951.6 946.01,-951.6 803.99,-951.6 803.99,-951.6 797.99,-951.6 791.99,-945.6 791.99,-939.6 791.99,-939.6 791.99,-805.2 791.99,-805.2 791.99,-799.2 797.99,-793.2 803.99,-793.2" style=""/>
<text text-anchor="middle" x="875" y="-935" font-family="Segoe UI" font-size="14.00" style="">DatasetAnalyzerWindow</text>
<polyline fill="none" stroke="#00695c" stroke-width="1.5" points="791.99,-926.8 958.01,-926.8" style=""/>
<text text-anchor="start" x="799.99" y="-910.2" font-family="Segoe UI" font-size="14.00" style="">+ stats: Dict</text>
<text text-anchor="start" x="799.99" y="-893.4" font-family="Segoe UI" font-size="14.00" style="">+ detailed_files: List</text>
<text text-anchor="start" x="799.99" y="-876.6" font-family="Segoe UI" font-size="14.00" style="">+ figs: List</text>
<polyline fill="none" stroke="#00695c" stroke-width="1.5" points="791.99,-868.4 958.01,-868.4" style=""/>
<text text-anchor="start" x="799.99" y="-851.8" font-family="Segoe UI" font-size="14.00" style="">- _analyze_data() [Thread]</text>
<text text-anchor="start" x="799.99" y="-835" font-family="Segoe UI" font-size="14.00" style="">+ _draw_split_charts()</text>
<text text-anchor="start" x="799.99" y="-818.2" font-family="Segoe UI" font-size="14.00" style="">+ _draw_log_chart()</text>
<text text-anchor="start" x="799.99" y="-801.4" font-family="Segoe UI" font-size="14.00" style="">+ save_chart_image()</text>
</g>
<!-- MainApp&#45;&gt;Analyzer -->
<g id="edge14" class="edge">
<title style="">MainApp-&gt;Analyzer</title>
<path fill="none" stroke="#00695c" stroke-width="2" d="M456.85,-1238.03C456.85,-1096.46 456.85,-872.4 456.85,-872.4 456.85,-872.4 778.61,-872.4 778.61,-872.4" style=""/>
<polygon fill="#00695c" stroke="#00695c" stroke-width="2" points="778.61,-875.9 788.61,-872.4 778.61,-868.9 778.61,-875.9" style=""/>
<text text-anchor="middle" x="417.86" y="-1189" font-family="Segoe UI" font-size="9.00" style="">Abre (Thread)</text>
</g>
<!-- GridWin -->
<g id="node11" class="node">
<title style="">GridWin</title>
<path fill="#fff8e1" stroke="#ff8f00" stroke-width="1.5" d="M1081.47,-1036C1081.47,-1036 1216.53,-1036 1216.53,-1036 1222.53,-1036 1228.53,-1042 1228.53,-1048 1228.53,-1048 1228.53,-1090.4 1228.53,-1090.4 1228.53,-1096.4 1222.53,-1102.4 1216.53,-1102.4 1216.53,-1102.4 1081.47,-1102.4 1081.47,-1102.4 1075.47,-1102.4 1069.47,-1096.4 1069.47,-1090.4 1069.47,-1090.4 1069.47,-1048 1069.47,-1048 1069.47,-1042 1075.47,-1036 1081.47,-1036" style=""/>
<text text-anchor="middle" x="1149" y="-1085.8" font-family="Segoe UI" font-size="14.00" style="">GridViewerWindow</text>
<polyline fill="none" stroke="#ff8f00" stroke-width="1.5" points="1069.47,-1077.6 1228.53,-1077.6" style=""/>
<text text-anchor="start" x="1077.47" y="-1061" font-family="Segoe UI" font-size="14.00" style="">• Visualização em grade</text>
<text text-anchor="start" x="1077.47" y="-1044.2" font-family="Segoe UI" font-size="14.00" style="">• Navegação rápida</text>
</g>
<!-- MainApp&#45;&gt;GridWin -->
<g id="edge15" class="edge">
<title style="">MainApp-&gt;GridWin</title>
<path fill="none" stroke="#ff8f00" d="M488.84,-1311.11C702.79,-1311.11 1149,-1311.11 1149,-1311.11 1149,-1311.11 1149,-1114.35 1149,-1114.35" style=""/>
<polygon fill="#ff8f00" stroke="#ff8f00" points="1152.5,-1114.35 1149,-1104.35 1145.5,-1114.35 1152.5,-1114.35" style=""/>
<text text-anchor="middle" x="1096" y="-1189" font-family="Segoe UI" font-size="9.00" style="">Abre</text>
</g>
<!-- FileSystem -->
<g id="node12" class="node">
<title style="">FileSystem</title>
<path fill="#f5f5f5" stroke="#616161" stroke-width="1.5" d="M1254.1,-73C1254.1,-77.03 1194.44,-80.3 1121,-80.3 1047.56,-80.3 987.9,-77.03 987.9,-73 987.9,-73 987.9,-7.3 987.9,-7.3 987.9,-3.27 1047.56,0 1121,0 1194.44,0 1254.1,-3.27 1254.1,-7.3 1254.1,-7.3 1254.1,-73 1254.1,-73" style=""/>
<path fill="none" stroke="#616161" stroke-width="1.5" d="M1254.1,-73C1254.1,-68.97 1194.44,-65.7 1121,-65.7 1047.56,-65.7 987.9,-68.97 987.9,-73" style=""/>
<text text-anchor="middle" x="1121" y="-52.75" font-family="Segoe UI" font-size="14.00" style="">{Sistema de Arquivos|• Imagens (.jpg/.png)</text>
<text text-anchor="middle" x="1121" y="-35.95" font-family="Segoe UI" font-size="14.00" style="">• Anotações (.txt)</text>
<text text-anchor="middle" x="1121" y="-19.15" font-family="Segoe UI" font-size="14.00" style="">• Configurações (.yaml)}</text>
</g>
<!-- AppState&#45;&gt;FileSystem -->
<g id="edge8" class="edge">
<title style="">AppState-&gt;FileSystem</title>
<path fill="none" stroke="#7b1fa2" d="M447.48,-223.95C447.48,-223.95 1000.9,-223.95 1000.9,-223.95 1000.9,-223.95 1000.9,-89.75 1000.9,-89.75" style=""/>
<polygon fill="#7b1fa2" stroke="#7b1fa2" points="447.48,-220.45 437.48,-223.95 447.48,-227.45 447.48,-220.45" style=""/>
<polygon fill="#7b1fa2" stroke="#7b1fa2" points="1004.4,-89.75 1000.9,-79.75 997.4,-89.75 1004.4,-89.75" style=""/>
<text text-anchor="middle" x="600.12" y="-112" font-family="Segoe UI" font-size="9.00" style="">Lê imagens</text>
</g>
<!-- UIManager&#45;&gt;MainApp -->
<g id="edge4" class="edge">
<title style="">UIManager-&gt;MainApp</title>
<path fill="none" stroke="#f57c00" stroke-dasharray="5,2" d="M233.85,-1139.17C278.21,-1139.17 322.74,-1139.17 322.74,-1139.17 322.74,-1139.17 322.74,-1226.53 322.74,-1226.53" style=""/>
<polygon fill="#f57c00" stroke="#f57c00" points="319.24,-1226.53 322.74,-1236.53 326.24,-1226.53 319.24,-1226.53" style=""/>
<text text-anchor="middle" x="181.5" y="-1189" font-family="Segoe UI" font-size="9.00" style="">Eventos</text>
</g>
<!-- UIManager&#45;&gt;CanvasCtrl -->
<g id="edge5" class="edge">
<title style="">UIManager-&gt;CanvasCtrl</title>
<path fill="none" stroke="#388e3c" stroke-dasharray="5,2" d="M116.81,-981.31C116.81,-981.31 116.81,-730.25 116.81,-730.25" style=""/>
<polygon fill="#388e3c" stroke="#388e3c" points="120.31,-730.25 116.81,-720.25 113.31,-730.25 120.31,-730.25" style=""/>
<text text-anchor="middle" x="127.24" y="-869.7" font-family="Segoe UI" font-size="9.00" style="">Atualiza</text>
</g>
<!-- CanvasCtrl&#45;&gt;AppState -->
<g id="edge6" class="edge">
<title style="">CanvasCtrl-&gt;AppState</title>
<path fill="none" stroke="#7b1fa2" stroke-dasharray="5,2" d="M234.58,-581.55C266.45,-581.55 294.49,-581.55 294.49,-581.55 294.49,-581.55 294.49,-347.55 294.49,-347.55" style=""/>
<polygon fill="#7b1fa2" stroke="#7b1fa2" points="297.99,-347.55 294.49,-337.55 290.99,-347.55 297.99,-347.55" style=""/>
<text text-anchor="middle" x="230.74" y="-457.3" font-family="Segoe UI" font-size="9.00" style="">Lê/Modifica</text>
</g>
<!-- CanvasCtrl&#45;&gt;UIManager -->
<g id="edge7" class="edge">
<title style="">CanvasCtrl-&gt;UIManager</title>
<path fill="none" stroke="#f57c00" stroke-dasharray="5,2" d="M175.19,-718.89C175.19,-718.89 175.19,-969.95 175.19,-969.95" style=""/>
<polygon fill="#f57c00" stroke="#f57c00" points="171.69,-969.95 175.19,-979.95 178.69,-969.95 171.69,-969.95" style=""/>
<text text-anchor="middle" x="204.74" y="-869.7" font-family="Segoe UI" font-size="9.00" style="">Notifica</text>
</g>
<!-- AnnManager&#45;&gt;FileSystem -->
<g id="edge20" class="edge">
<title style="">AnnManager-&gt;FileSystem</title>
<path fill="none" stroke="#3949ab" stroke-dasharray="1,5" d="M1281.82,-445.97C1260.49,-445.97 1245.58,-445.97 1245.58,-445.97 1245.58,-445.97 1245.58,-89.48 1245.58,-89.48" style=""/>
<polygon fill="#3949ab" stroke="#3949ab" points="1249.08,-89.48 1245.58,-79.48 1242.08,-89.48 1249.08,-89.48" style=""/>
<text text-anchor="middle" x="1396.12" y="-262.3" font-family="Segoe UI" font-size="9.00" style="">Salva anotações</text>
</g>
<!-- DataUtils&#45;&gt;FileSystem -->
<g id="edge21" class="edge">
<title style="">DataUtils-&gt;FileSystem</title>
<path fill="none" stroke="#c2185b" stroke-dasharray="1,5" d="M1341.85,-872.4C1288.5,-872.4 1237.06,-872.4 1237.06,-872.4 1237.06,-872.4 1237.06,-89.86 1237.06,-89.86" style=""/>
<polygon fill="#c2185b" stroke="#c2185b" points="1240.56,-89.86 1237.06,-79.86 1233.56,-89.86 1240.56,-89.86" style=""/>
<text text-anchor="middle" x="1651.12" y="-457.3" font-family="Segoe UI" font-size="9.00" style="">Move arquivos</text>
</g>
<!-- NewProj&#45;&gt;MainApp -->
<g id="edge16" class="edge">
<title style="">NewProj-&gt;MainApp</title>
<path fill="none" stroke="#1976d2" stroke-dasharray="5,2" d="M527.22,-1057.97C496.23,-1057.97 467.39,-1057.97 467.39,-1057.97 467.39,-1057.97 467.39,-1226.73 467.39,-1226.73" style=""/>
<polygon fill="#1976d2" stroke="#1976d2" points="463.89,-1226.73 467.39,-1236.73 470.89,-1226.73 463.89,-1226.73" style=""/>
<text text-anchor="middle" x="524.12" y="-1189" font-family="Segoe UI" font-size="9.00" style="">Configura projeto</text>
</g>
<!-- ClassMgr&#45;&gt;MainApp -->
<g id="edge17" class="edge">
<title style="">ClassMgr-&gt;MainApp</title>
<path fill="none" stroke="#7b1fa2" stroke-dasharray="5,2" d="M767.95,-1102.83C767.95,-1155.76 767.95,-1252.54 767.95,-1252.54 767.95,-1252.54 500.28,-1252.54 500.28,-1252.54" style=""/>
<polygon fill="#7b1fa2" stroke="#7b1fa2" points="500.28,-1249.04 490.28,-1252.54 500.28,-1256.04 500.28,-1249.04" style=""/>
<text text-anchor="middle" x="701.86" y="-1189" font-family="Segoe UI" font-size="9.00" style="">Atualiza classes</text>
</g>
<!-- SplitWiz&#45;&gt;MainApp -->
<g id="edge18" class="edge">
<title style="">SplitWiz-&gt;MainApp</title>
<path fill="none" stroke="#f57c00" stroke-dasharray="5,2" d="M986.97,-1102.73C986.97,-1165.95 986.97,-1296.47 986.97,-1296.47 986.97,-1296.47 500.39,-1296.47 500.39,-1296.47" style=""/>
<polygon fill="#f57c00" stroke="#f57c00" points="500.39,-1292.97 490.39,-1296.47 500.39,-1299.97 500.39,-1292.97" style=""/>
<text text-anchor="middle" x="880.37" y="-1189" font-family="Segoe UI" font-size="9.00" style="">Aplica divisão</text>
</g>
<!-- Analyzer&#45;&gt;FileSystem -->
<g id="edge19" class="edge">
<title style="">Analyzer-&gt;FileSystem</title>
<path fill="none" stroke="#00695c" stroke-dasharray="1,5" d="M958.21,-815.7C987.79,-815.7 1013.91,-815.7 1013.91,-815.7 1013.91,-815.7 1013.91,-90.39 1013.91,-90.39" style=""/>
<polygon fill="#00695c" stroke="#00695c" points="1017.41,-90.39 1013.91,-80.39 1010.41,-90.39 1017.41,-90.39" style=""/>
<text text-anchor="middle" x="1066.61" y="-457.3" font-family="Segoe UI" font-size="9.00" style="">Analisa estrutura</text>
</g>
<!-- L1 -->
<g id="node13" class="node">
<title style="">L1</title>
<text text-anchor="middle" x="1772" y="-1348.5" font-family="Segoe UI" font-size="9.00" style="">• Seta sólida: Criação/Gerenciamento</text>
</g>
<!-- L2 -->
<g id="node14" class="node">
<title style="">L2</title>
<text text-anchor="middle" x="1772" y="-1066.5" font-family="Segoe UI" font-size="9.00" style="">• Seta tracejada: Interação/Evento</text>
</g>
<!-- L1&#45;&gt;L2 -->
<!-- L3 -->
<g id="node15" class="node">
<title style="">L3</title>
<text text-anchor="middle" x="1772" y="-628.3" font-family="Segoe UI" font-size="9.00" style="">• Seta pontilhada: Operação de I/O</text>
</g>
<!-- L2&#45;&gt;L3 -->
<!-- L4 -->
<g id="node16" class="node">
<title style="">L4</title>
<text text-anchor="middle" x="1772" y="-262.3" font-family="Segoe UI" font-size="9.00" style="">• Cores: Agrupamento por módulo</text>
</g>
<!-- L3&#45;&gt;L4 -->
</g>
</svg>